<?xml version="1.0" encoding="utf-8"?>
<!-- Generator: Adobe Illustrator 17.1.0, SVG Export Plug-In . SVG Version: 6.00 Build 0)  -->
<!DOCTYPE svg PUBLIC "-//W3C//DTD SVG 1.1//EN" "http://www.w3.org/Graphics/SVG/1.1/DTD/svg11.dtd">
<svg version="1.1" id="图层_1" xmlns="http://www.w3.org/2000/svg" xmlns:xlink="http://www.w3.org/1999/xlink" x="0px" y="0px"
	 viewBox="14.2 137.5 566.9 566.9" enable-background="new 14.2 137.5 566.9 566.9" xml:space="preserve">
<path d="M525.6,335.7c0,4.5,0,7.5,1.5,12c1.5,9,1.5,18,1.5,27c0,9,0,19.5,1.5,28.5c0,4.5,0,9,0,13.5c0,9,1.5,16.5,1.5,25.5
	c0,4.5,0,6-6,6c-4.5,1.5-9,1.5-13.5,1.5c-3,0-4.5,0-4.5-3c-1.5-4.5-1.5-7.5-1.5-12c0-13.5-3-25.5-6-39c-1.5-7.5-1.5-15-1.5-24
	c0-10.5,0-19.5,0-30c0-7.5,0-15,0-22.5c0-1.5,0-3,0-3c-1.5,0-1.5,0-3,1.5c-1.5,1.5-3,3-4.5,4.5c0,0,0,0-1.5,1.5c-6,6-12,6-18,0
	c-3-3-6-6-7.5-10.5c-1.5-3-1.5-6,1.5-9c9-7.5,16.5-15,25.5-22.5c1.5-3,1.5-3,1.5-6c0-3,0-4.5,0-7.5c0-1.5,0-3-1.5-3s-3,0-3,0
	c-1.5,1.5-3,1.5-3,3c-1.5,1.5-3,3-4.5,4.5c-1.5,1.5-3,1.5-4.5,0c-7.5-6-12-13.5-9-22.5c1.5,0,1.5-3,1.5-4.5c0-1.5,1.5-1.5,3-3
	c3-1.5,7.5-1.5,10.5-1.5s6,0,9,0s3,0,3-3s0-4.5,0-7.5c0-1.5-1.5-1.5-3-1.5c-3,1.5-6,1.5-9,1.5c-6,0-7.5-1.5-7.5-4.5
	c-1.5-3-1.5-6-3-9c0-3,0-4.5,3-6c1.5-1.5,4.5-1.5,6-1.5c4.5-1.5,7.5-3,10.5-7.5c1.5-3,3-6,3-9c0-1.5,0-3-1.5-3c-3,0-6,0-9,0
	s-7.5,1.5-10.5,0c-1.5,0-4.5,0-4.5-3c-1.5-3,1.5-4.5,3-4.5l1.5-1.5c4.5-1.5,9-4.5,13.5-6c6-1.5,12-4.5,18-7.5c4.5-1.5,7.5-4.5,12-6
	c1.5,0,3,0,4.5,0c4.5,1.5,9,3,12,6c3,1.5,4.5,4.5,3,7.5c-1.5,4.5-4.5,9-7.5,13.5c-1.5,3-4.5,3-6,3s-3,0-3,0c-1.5,0-1.5,0-3,1.5
	c0,1.5,0,3,0,3c1.5,3,4.5,4.5,7.5,4.5s7.5-1.5,10.5-1.5s4.5,0,6,3c1.5,6,1.5,10.5,0,16.5c0,3-3,6-6,7.5c-3,1.5-4.5,1.5-7.5,1.5
	c-1.5,0-3-1.5-4.5,0c-1.5,1.5-3,4.5-1.5,7.5c0,1.5,1.5,1.5,3,1.5c3,0,6,0,9-3c1.5-1.5,4.5-3,7.5-3s4.5,1.5,6,1.5c3,1.5,6,3,9,4.5
	c3-1.5,4.5,0,3,3c-1.5,6-3,12-7.5,18c-3,3-7.5,6-12,7.5c-3,1.5-4.5,4.5-4.5,7.5c0,1.5,0,3,1.5,1.5c3,0,4.5-1.5,7.5-3
	c1.5,0,4.5-1.5,6-1.5c3,0,4.5,3,4.5,6c0,3-1.5,4.5-3,6c-1.5,3-4.5,6-6,9c-3,4.5-9,6-13.5,7.5c-1.5,0-3,1.5-4.5,1.5
	c-1.5,0-3,1.5-3,4.5c0,6-1.5,13.5-1.5,19.5c0,1.5,0,1.5,1.5,3c1.5,0,1.5,1.5,1.5,1.5c1.5,4.5,4.5,6,9,6c4.5,0,6-3,4.5-6
	c0-1.5,0-3,1.5-3c4.5,0,7.5,1.5,10.5,3c1.5,0,1.5,1.5,3,1.5c3,3,6,4.5,10.5,6c4.5,1.5,7.5,4.5,9,9c1.5,6,1.5,12,0,16.5
	c-1.5,4.5-4.5,7.5-10.5,9c-10.5,1.5-22.5-4.5-27-15C533.1,349.2,530.1,341.7,525.6,335.7C527.1,337.2,527.1,337.2,525.6,335.7
	L525.6,335.7"/>
<path d="M425.1,310.2c-1.5,0-1.5,1.5-1.5,1.5c-3,3-6,4.5-9,3c-1.5,0-3-1.5-3-3c-1.5-6-3-10.5-4.5-16.5c-1.5-4.5,0-9,4.5-12
	s7.5-7.5,10.5-12l0,0c3-4.5,3-6-1.5-9c-1.5-1.5-3-1.5-4.5-3c-3-1.5-4.5-4.5-4.5-7.5c0-1.5-1.5-4.5-1.5-7.5s0-3,3-4.5
	c1.5,0,3-1.5,6-1.5c4.5,0,7.5-4.5,7.5-9c0-3-1.5-3-4.5-3c-3,0-7.5,0-10.5-1.5c-1.5,0-3-1.5-3-3c0-3,0-6,0-9c0-1.5,0-3,3-3
	c1.5,0,3,0,6,0c4.5,0,9-1.5,13.5-4.5c1.5-1.5,3-3,4.5-4.5c3-3,6-3,9-4.5c4.5,0,7.5,0,12,0c1.5,0,3,0,4.5,1.5c1.5,1.5,3,1.5,4.5,1.5
	c1.5,1.5,3,3,3,6c0,1.5,0,3,0,4.5c0,3-1.5,6-1.5,9c0,1.5,0,3-1.5,3c-1.5,1.5-3,3-4.5,4.5c-1.5,1.5-3,1.5-6,1.5c-3,0-3,0-3,3
	c0,3-1.5,6,0,9c0,3,1.5,3,3,3s1.5,0,3,0c4.5,0,6,0,4.5,4.5c0,3-1.5,6-1.5,9c0,3-1.5,6-1.5,10.5c0,4.5-1.5,7.5-4.5,9
	c-3,3-4.5,6-4.5,10.5c0,6-1.5,12-1.5,18c-1.5,9-3,18-3,28.5c0,6-1.5,12-1.5,16.5s-1.5,9-1.5,13.5c0,3-1.5,4.5-3,6c-1.5,3-3,4.5-6,3
	c-4.5,0-4.5-1.5-6-6c-1.5-10.5-6-19.5-12-28.5c-1.5-1.5,0-1.5,1.5-1.5s3,0,4.5,0c1.5,0,3-1.5,3-3c1.5-7.5,3-15,3-21
	C426.6,311.7,426.6,310.2,425.1,310.2"/>
<path d="M347.2,401.7c0-12,1.5-24,1.5-34.5c0-7.5,0-15-3-22.5c-3-10.5-4.5-22.5-7.5-33c0-3-1.5-4.5-1.5-7.5c-1.5-4.5-3-7.5-6-12
	c-1.5-1.5-3-4.5-3-6c0-9,1.5-18,3-25.5c0-1.5,0-3,1.5-4.5c1.5-3,3-3,4.5,0c1.5,1.5,3,3,3,4.5c3,4.5,6,10.5,10.5,15c3,3,6,6,9,9
	c1.5,1.5,1.5,3,3,4.5c1.5,6,3,13.5,1.5,19.5v1.5c-4.5,12-3,25.5-3,37.5c0,4.5,1.5,9,3,13.5c1.5,4.5,3,4.5,7.5,1.5
	c9-7.5,16.5-16.5,22.5-25.5c3-4.5,6-10.5,9-15c1.5-1.5,3-3,4.5-4.5c1.5-1.5,3-1.5,3,1.5s0,4.5,0,7.5c-1.5,7.5-4.5,15-7.5,24
	c-3,10.5-9,19.5-15,28.5c-3,4.5-4.5,7.5-6,13.5c0,3-1.5,6-4.5,9c-3,4.5-6,7.5-9,12s-9,6-13.5,6h-1.5c-4.5,0-6-1.5-6-6
	C347.2,407.7,347.2,404.7,347.2,401.7"/>
<path d="M38.3,398.7c0-6,1.5-13.5,1.5-21c0-6,0-13.5,0-19.5c-1.5-10.5-3-21-3-31.5c0-6-1.5-13.5-3-19.5c-1.5-3-3-7.5-6-10.5
	c-3-4.5-4.5-9-4.5-15c0-7.5-1.5-13.5-3-21c-1.5-1.5-1.5-3-1.5-4.5s1.5-3,3-1.5c4.5,1.5,9,3,13.5,1.5c3,0,4.5-1.5,7.5-3
	c1.5,0,1.5-1.5,3,0c1.5,1.5,1.5,1.5,1.5,3s-1.5,1.5-1.5,3c-3,1.5-4.5,3-6,4.5c-3,3-4.5,7.5-4.5,12c1.5,7.5,3,13.5,10.5,18
	c3,0,6,3,7.5,4.5c1.5,1.5,3,4.5,3,7.5c0,6-1.5,10.5-1.5,16.5c0,7.5,0,15,0,21c0,3,1.5,6,1.5,9c1.5,3,3,6,4.5,9s4.5,3,6,1.5
	c4.5-3,6-7.5,9-12c7.5-12,13.5-24,21-37.5c0-1.5,1.5-3,1.5-1.5c1.5,0,0,1.5,0,3c-1.5,6-3,10.5-1.5,16.5c0,4.5,0,9-3,13.5
	c-7.5,13.5-13.5,28.5-21,42c-4.5,7.5-7.5,13.5-12,19.5c0,0,0,1.5-1.5,1.5c-1.5,4.5-4.5,7.5-10.5,6c-4.5-1.5-9-4.5-10.5-9
	C38.3,401.7,38.3,400.2,38.3,398.7"/>
<path d="M254.2,383.7c-3-1.5-6,1.5-9,1.5c-6,3-13.5,7.5-19.5,10.5c-7.5,4.5-16.5,6-25.5,7.5c-1.5,0-4.5,0-6,0c-1.5,0-1.5,0-1.5-1.5
	s0-1.5,1.5-1.5c1.5-1.5,3-1.5,4.5-3c4.5-1.5,7.5-3,10.5-6c9-9,16.5-18,22.5-28.5c1.5-3,1.5-6,0-9c-1.5-4.5-4.5-7.5-7.5-10.5
	c-1.5-1.5-1.5-3,0-3c1.5-4.5,4.5-6,9-6c3,0,6,0,9,3c1.5,1.5,4.5,3,7.5,4.5c4.5,1.5,7.5,4.5,9,9c4.5,7.5,6,16.5,7.5,25.5
	c0,4.5-1.5,7.5-6,7.5C257.2,383.7,255.7,383.7,254.2,383.7"/>
<path d="M101.3,230.8c0,9-6,15-15,13.5c-3-1.5-4.5-1.5-7.5-3c-6-3-13.5-1.5-19.5-1.5c-1.5,0-3,0-3,0c-4.5,1.5-7.5-1.5-9-4.5
	c-1.5,0-1.5-1.5,0-1.5c1.5-3,4.5-4.5,7.5-6c1.5,0,1.5-1.5,3-1.5c3-1.5,3-3,3-6c-1.5-6-6-9-12-9c-3,0-3-1.5-1.5-3
	c3-4.5,7.5-7.5,13.5-9c6,0,12,0,16.5,3c7.5,4.5,15,9,18,16.5C99.8,223.3,101.3,227.8,101.3,230.8"/>
<path d="M206.2,335.7c-1.5,0-3,0-6-1.5c-1.5,0-1.5-1.5-1.5-3c4.5-3,7.5-9,10.5-13.5c4.5-7.5,7.5-15,10.5-24c1.5-3,1.5-4.5,0-7.5
	c-1.5-4.5-1.5-9-3-13.5c0-1.5,0-1.5,1.5-3c4.5-3,9-1.5,13.5,0c4.5,1.5,7.5,6,10.5,9c4.5,6,7.5,13.5,9,21c1.5,4.5-1.5,6-4.5,7.5
	c-3,1.5-7.5,3-10.5,4.5c-3,0-4.5,1.5-7.5,4.5c-4.5,4.5-9,9-13.5,13.5C215.2,334.2,212.2,335.7,206.2,335.7"/>
<path d="M378.7,205.3c3,0,6,1.5,9,3c9,6,16.5,13.5,21,22.5c3,4.5,1.5,9-1.5,13.5c-1.5,1.5-3,3-6,1.5c-7.5-1.5-16.5-1.5-24-1.5
	c-9,1.5-16.5-1.5-24-3l0,0c0,0-1.5,0-1.5-1.5s1.5-1.5,1.5-1.5c6-1.5,12-4.5,16.5-9c3-3,3-4.5,0-6c-3-3-6-3-7.5-4.5c-3-1.5-6-3-6-7.5
	c0-1.5,0-3,1.5-3c4.5-1.5,9-3,13.5-4.5C374.2,205.3,375.7,205.3,378.7,205.3"/>
<path d="M240.7,187.3c3,0,6,1.5,9,1.5c1.5,0,3,1.5,1.5,4.5c0,4.5-1.5,7.5-3,10.5c-3,6-4.5,13.5-7.5,19.5c-3,7.5-9,13.5-18,15
	c-1.5,0-3,0-4.5,0s-3-1.5-1.5-3c1.5-3,3-6,4.5-7.5c1.5-3,3-4.5,4.5-7.5c1.5-1.5,1.5-4.5,1.5-6c0-1.5-1.5-3-3-4.5
	c-3-3-4.5-6-7.5-10.5v-1.5c6-4.5,12-7.5,19.5-9C236.2,187.3,237.7,187.3,240.7,187.3"/>
<path d="M185.2,358.2c-7.5-3-16.5-6-24-1.5c-1.5,0-1.5,0-1.5-1.5s0-1.5,1.5-3c3-1.5,6-4.5,7.5-6c3-3,6-6,9-7.5c4.5-1.5,4.5-6,4.5-9
	c0-4.5-1.5-9-1.5-13.5c0-1.5-1.5-3-3-3c-3,0-4.5,0-7.5,1.5c-1.5,0-3,1.5-4.5,1.5s-1.5,0-1.5-1.5s0-3,1.5-3s3-1.5,3-3
	c1.5-4.5,3-9,1.5-15c0-1.5,0-3-3-4.5c0,0,0-1.5-1.5-1.5c-1.5-4.5,0-6,4.5-7.5l0,0c1.5,0,3-1.5,3-3c0-1.5,0-3,0-6
	c0-1.5-1.5-3-1.5-4.5c1.5-1.5,0-3-3-3c-4.5-1.5-9,0-13.5,0c-6,0-9,1.5-13.5,4.5c-3,3-4.5,6-7.5,7.5c-4.5,4.5-10.5,7.5-16.5,10.5
	c-3,1.5-4.5,0-4.5-3c0-1.5,0-4.5,1.5-6c0-3,1.5-4.5,4.5-4.5c1.5,0,4.5-1.5,6-3c4.5-3,10.5-6,15-9c7.5-4.5,13.5-9,21-13.5
	c7.5-4.5,13.5-7.5,21-10.5c1.5,0,1.5-1.5,3-1.5c1.5-3,3-6,4.5-10.5c0-4.5-1.5-7.5-4.5-9c-1.5,0-3,0-4.5,0c-3,1.5-6,3-10.5,3
	c-4.5,1.5-7.5,3-10.5,4.5c-1.5,1.5-4.5,3-6,3s-1.5,0-1.5,0v-1.5c0-4.5,0-9,0-13.5c1.5-3,1.5-3,3-3c6,0,10.5,0,16.5-1.5
	c7.5-1.5,16.5-7.5,13.5-19.5c-1.5-4.5-3-6-7.5-6c-6,0-10.5,1.5-16.5,1.5c-3,0-3,0-3-3c0-3,0-7.5,0-10.5c0-3,1.5-7.5,1.5-10.5
	c1.5-4.5,0-9-3-13.5c-1.5-1.5-3-1.5-4.5,0c-1.5,1.5-3,1.5-4.5,3c-1.5,3-4.5,6-9,7.5c-1.5,0-1.5,1.5-3,1.5l-1.5,1.5c1.5,3,1.5,6,3,9
	c1.5,1.5,1.5,3,1.5,4.5c0,4.5,0,7.5-1.5,12c0,1.5-1.5,3-3,3c-1.5,1.5-3,1.5-4.5,1.5c-3,0-7.5,0-10.5,0h-4.5c-4.5,0-4.5,0-3,4.5
	c3,6,7.5,10.5,9,16.5c1.5,1.5,3,1.5,4.5,1.5c3-1.5,6-1.5,9-1.5s4.5,1.5,4.5,4.5c0,4.5,0,10.5,0,15c0,3,0,6-3,7.5
	c-1.5,0-1.5,1.5-3,1.5c-4.5,7.5-12,10.5-18,16.5c-4.5,3-9,6-15,7.5c-7.5,1.5-15,1.5-22.5,1.5c-4.5,0-7.5,0-12,0c-3,0-6,0-9,1.5
	c-1.5,0-1.5,0-1.5,1.5c3,4.5,4.5,10.5,7.5,15c1.5,3,4.5,4.5,9,3c9-1.5,18-3,25.5-6c3-1.5,4.5-3,7.5-3h1.5c0,7.5,0,15-1.5,22.5
	c0,1.5,0,3-1.5,3c-1.5,1.5-1.5,3-1.5,6c3,9,6,18,7.5,27c1.5,6,3,10.5,3,16.5c0,3,0,6,1.5,9c0,1.5,1.5,1.5,3,3c3,1.5,6,0,9-3
	c1.5-1.5,4.5-4.5,6-6c0,0,1.5-1.5,1.5,0v1.5c0,3-1.5,7.5-1.5,10.5c0,1.5,0,1.5-3,3c-6,0-10.5,0-16.5,1.5c-1.5,0-3,0-4.5,1.5
	c-4.5,3-9,7.5-13.5,12c-3,3-4.5,6-3,10.5c0,1.5,0,3,1.5,4.5c1.5,4.5,3,9,3,13.5c1.5,6,7.5,10.5,13.5,9c4.5,0,9,0,13.5-1.5
	c4.5,0,9-3,10.5-7.5c0-1.5,1.5-3,3-4.5c6-6,12-10.5,18-13.5c4.5-3,10.5-4.5,16.5-7.5c1.5,0,1.5,0,3,0c1.5,0,1.5,0,3,0
	c3-1.5,4.5-4.5,6-7.5c1.5-3,1.5-6,3-9C191.2,362.7,189.7,359.7,185.2,358.2 M143.2,295.3l-10.5,9c-3,3-4.5,4.5-7.5,7.5
	c0,0-1.5,1.5-3,1.5s0-1.5,0-1.5c0-3,1.5-6,3-7.5c3-3,6-6,7.5-9c3-4.5,6-4.5,10.5-6c1.5,0,1.5,1.5,1.5,1.5
	C144.7,293.8,144.7,293.8,143.2,295.3"/>
</svg>
